<?xml version="1.0" encoding="iso-8859-1"?>
<!-- Generator: Adobe Illustrator 19.0.0, SVG Export Plug-In . SVG Version: 6.00 Build 0)  -->
<svg version="1.1" id="Layer_1" xmlns="http://www.w3.org/2000/svg" xmlns:xlink="http://www.w3.org/1999/xlink" x="0px" y="0px"
	 viewBox="0 0 406.816 406.816" style="enable-background:new 0 0 406.816 406.816;" xml:space="preserve">
<path style="fill:#F3A069;" d="M336.524,267.702H70.294C34.785,267.702,6,238.917,6,203.409l0,0
	c0-35.508,28.785-64.294,64.294-64.294h266.23c35.508,0,64.294,28.785,64.294,64.294l0,0
	C400.817,238.917,372.032,267.702,336.524,267.702z"/>
<path style="fill:#956958;" d="M70.294,139.115C34.785,139.115,6,167.9,6,203.408l0,0c0,35.508,28.785,64.294,64.294,64.294h133.115
	V139.115H70.294z"/>
<g>
	<g>
		<g>
			<path style="fill:#F9C890;" d="M58.812,178.389H42.607c-4.868,0-8.815,3.946-8.815,8.815v32.41c0,4.868,3.946,8.815,8.815,8.815
				h16.205c13.796,0,25.019-11.224,25.019-25.02C83.831,189.613,72.608,178.389,58.812,178.389L58.812,178.389z M51.422,210.798
				v-14.781h7.391c4.075,0,7.39,3.315,7.39,7.39c0,4.075-3.315,7.39-7.39,7.39h-7.391V210.798z"/>
		</g>
	</g>
	<g>
		<g>
			<g>
				<g>
					<g>
						<path style="fill:#F9C890;" d="M120.834,178.389h-5.966c-12.151,0-22.036,9.885-22.036,22.036v5.966
							c0,12.151,9.885,22.036,22.036,22.036h5.966c12.151,0,22.036-9.885,22.036-22.036v-5.966
							C142.87,188.273,132.985,178.389,120.834,178.389L120.834,178.389z M114.868,210.798c-2.43,0-4.407-1.977-4.407-4.407v-5.966
							c0-2.43,1.977-4.407,4.407-4.407h5.966c2.43,0,4.407,1.977,4.407,4.407v5.966c0,2.43-1.977,4.407-4.407,4.407H114.868
							L114.868,210.798z"/>
					</g>
				</g>
			</g>
		</g>
	</g>
	<g>
		<g>
			<g>
				<g>
					<g>
						<path style="fill:#F9C890;" d="M193.094,178.389c-4.868,0-8.815,3.946-8.815,8.815v8.815v2.315l-1.157-1.157l-16.205-16.205
							c-1.686-1.686-3.941-2.582-6.234-2.582c-1.135,0-2.281,0.219-3.372,0.671c-3.293,1.364-5.441,4.578-5.441,8.144v32.41
							c0,4.868,3.946,8.815,8.815,8.815s8.815-3.946,8.815-8.815V210.8v-2.315l1.158,1.158l16.204,16.205
							c1.687,1.687,3.941,2.582,6.235,2.582c1.135,0,2.281-0.22,3.371-0.671c3.293-1.364,5.441-4.578,5.441-8.144v-32.41
							C201.909,182.335,197.962,178.389,193.094,178.389L193.094,178.389z"/>
					</g>
				</g>
			</g>
		</g>
	</g>
	<g>
		<g>
			<path style="fill:#FEFBEF;" d="M235.928,178.389c-13.796,0-25.02,11.224-25.02,25.02v16.205c0,4.868,3.946,8.815,8.815,8.815
				c3.639,0,6.761-2.206,8.107-5.352h16.196c1.346,3.147,4.468,5.352,8.107,5.352c4.868,0,8.815-3.946,8.815-8.815v-16.205
				C260.947,189.613,249.724,178.389,235.928,178.389L235.928,178.389z M228.538,205.447v-2.038c0-4.075,3.316-7.39,7.39-7.39
				c4.075,0,7.39,3.315,7.39,7.39v2.038H228.538L228.538,205.447z"/>
		</g>
	</g>
	<g>
		<g>
			<path style="fill:#FEFBEF;" d="M307.172,178.389h-32.41c-4.868,0-8.815,3.946-8.815,8.815c0,4.869,3.946,8.815,8.815,8.815h7.39
				v23.595c0,4.868,3.946,8.815,8.815,8.815s8.815-3.946,8.815-8.815v-23.595h7.39c4.868,0,8.815-3.946,8.815-8.815
				C315.987,182.335,312.04,178.389,307.172,178.389L307.172,178.389z"/>
		</g>
	</g>
	<g>
		<g>
			<path style="fill:#FEFBEF;" d="M364.21,178.389h-23.47c-9.789,0-17.753,7.964-17.753,17.754v14.531
				c0,9.79,7.964,17.754,17.753,17.754h23.471c4.868,0,8.815-3.946,8.815-8.815c0-4.868-3.946-8.815-8.815-8.815H340.74
				c-0.068,0-0.124-0.056-0.124-0.125v-1.389h19.883c3.245,0,5.876-2.631,5.876-5.876c0-3.245-2.631-5.876-5.876-5.876h-19.883
				v-1.389c0-0.069,0.056-0.125,0.124-0.125h23.471c4.868,0,8.815-3.946,8.815-8.815
				C373.026,182.333,369.078,178.389,364.21,178.389L364.21,178.389z"/>
		</g>
	</g>
</g>
<g>
	<path style="fill:#E27C50;" d="M336.524,133.115H70.293C31.534,133.115,0,164.648,0,203.409s31.534,70.293,70.293,70.293h266.23
		c38.76,0,70.293-31.534,70.293-70.293S375.284,133.115,336.524,133.115z M336.524,261.702H70.293
		C38.15,261.702,12,235.552,12,203.409s26.15-58.293,58.293-58.293h266.23c32.143,0,58.293,26.15,58.293,58.293
		S368.667,261.702,336.524,261.702z"/>
</g>
<path style="fill:#F3A069;" d="M58.812,181.389H42.607c-3.206,0-5.815,2.608-5.815,5.815v32.41c0,3.206,2.608,5.815,5.815,5.815
	h16.205c12.141,0,22.019-9.878,22.019-22.02S70.954,181.389,58.812,181.389z M58.812,213.798h-7.391h-3v-3v-14.781v-3h3h7.391
	c5.729,0,10.39,4.661,10.39,10.39S64.541,213.798,58.812,213.798z"/>
<path style="fill:#F3A069;" d="M120.834,181.389h-5.966c-10.497,0-19.036,8.54-19.036,19.036v5.966
	c0,10.497,8.54,19.036,19.036,19.036h5.966c10.497,0,19.036-8.54,19.036-19.036v-5.966
	C139.87,189.927,131.33,181.389,120.834,181.389z M128.241,206.391c0,4.084-3.323,7.407-7.407,7.407h-5.966
	c-4.084,0-7.407-3.323-7.407-7.407v-5.966c0-4.084,3.323-7.407,7.407-7.407h5.966c4.084,0,7.407,3.323,7.407,7.407V206.391z"/>
<path style="fill:#F3A069;" d="M198.909,219.613v-32.41c0-3.206-2.608-5.815-5.815-5.815s-5.815,2.608-5.815,5.815v8.815v2.315
	v7.243l-5.121-5.121l-1.157-1.157l-16.205-16.205c-1.098-1.098-2.559-1.703-4.113-1.703c-0.766,0-1.514,0.149-2.224,0.443
	c-2.179,0.903-3.588,3.012-3.588,5.372v32.41c0,3.206,2.608,5.815,5.815,5.815s5.815-2.608,5.815-5.815v-8.815v-2.315v-7.243
	l5.121,5.121l1.158,1.158l16.204,16.205c1.099,1.099,2.56,1.704,4.114,1.704c0.765,0,1.514-0.15,2.224-0.443
	C197.5,224.082,198.909,221.973,198.909,219.613z"/>
<path style="fill:#F9C890;" d="M235.928,181.389c-12.142,0-22.02,9.878-22.02,22.02v16.205c0,3.206,2.608,5.815,5.815,5.815
	c2.332,0,4.431-1.386,5.348-3.532l0.779-1.82h1.98h16.196h1.98l0.778,1.82c0.918,2.146,3.017,3.532,5.349,3.532
	c3.206,0,5.815-2.608,5.815-5.815v-16.205C257.947,191.267,248.07,181.389,235.928,181.389z M246.318,205.445v3h-3h-14.78h-3v-3
	v-2.038c0-5.729,4.661-10.39,10.39-10.39s10.39,4.661,10.39,10.39V205.445z"/>
<path style="fill:#F9C890;" d="M312.986,187.203c0-3.206-2.608-5.815-5.815-5.815h-32.41c-3.206,0-5.815,2.608-5.815,5.815
	s2.608,5.815,5.815,5.815h7.39h3v3v23.595c0,3.206,2.608,5.815,5.815,5.815s5.815-2.608,5.815-5.815v-23.595v-3h3h7.39
	C310.378,193.018,312.986,190.409,312.986,187.203z"/>
<path style="fill:#F9C890;" d="M364.21,213.798h-23.47c-1.723,0-3.124-1.402-3.124-3.125v-1.389v-3h3h19.883
	c1.586,0,2.876-1.29,2.876-2.876c0-1.586-1.29-2.876-2.876-2.876h-19.883h-3v-3v-1.389c0-1.723,1.401-3.125,3.124-3.125h23.471
	c3.206,0,5.815-2.608,5.815-5.815s-2.608-5.815-5.815-5.815H340.74c-8.135,0-14.753,6.619-14.753,14.754v14.531
	c0,8.135,6.618,14.754,14.753,14.754h23.471c3.206,0,5.815-2.608,5.815-5.815S367.416,213.798,364.21,213.798z"/>
<path style="fill:#7C5849;" d="M203.409,261.702H70.293C38.15,261.702,12,235.552,12,203.409s26.15-58.293,58.293-58.293h133.115
	v-12H70.293C31.534,133.115,0,164.648,0,203.409s31.534,70.293,70.293,70.293h133.115L203.409,261.702L203.409,261.702z"/>
<g>
</g>
<g>
</g>
<g>
</g>
<g>
</g>
<g>
</g>
<g>
</g>
<g>
</g>
<g>
</g>
<g>
</g>
<g>
</g>
<g>
</g>
<g>
</g>
<g>
</g>
<g>
</g>
<g>
</g>
</svg>
