<?xml version="1.0" encoding="iso-8859-1"?>
<!-- Generator: Adobe Illustrator 19.0.0, SVG Export Plug-In . SVG Version: 6.00 Build 0)  -->
<svg version="1.1" id="Layer_1" xmlns="http://www.w3.org/2000/svg" xmlns:xlink="http://www.w3.org/1999/xlink" x="0px" y="0px"
	 viewBox="0 0 255.971 255.971" style="enable-background:new 0 0 255.971 255.971;" xml:space="preserve">
<g>
	<path style="fill:#F9C890;" d="M175.7,4.69c-5.886-4.198-13.302-5.671-20.346-4.041s-13.059,6.21-16.503,12.568l-10.865,20.057
		L117.12,13.217c-3.444-6.357-9.459-10.938-16.503-12.567c-7.044-1.63-14.459-0.157-20.346,4.041
		c-12.318,8.785-15.192,25.954-6.407,38.271l0.548,0.768l31.048,27.799l22.525,0.617l22.525-0.617l31.048-27.799l0.548-0.768
		C190.892,30.644,188.018,13.476,175.7,4.69z M112.157,54.706l-24.895-22.29c-2.789-4.62-1.585-10.701,2.88-13.885
		c1.95-1.391,4.308-1.861,6.642-1.319c2.334,0.54,4.248,1.997,5.389,4.103l18.21,33.616L112.157,54.706z M168.709,32.416
		l-24.895,22.29l-8.227,0.225l18.21-33.616c1.141-2.106,3.055-3.563,5.389-4.104c0.632-0.146,1.266-0.219,1.893-0.219
		c1.688,0,3.328,0.524,4.75,1.538C170.294,21.716,171.497,27.796,168.709,32.416z"/>
	<path style="fill:#D5AD7D;" d="M127.986,33.274L117.12,13.217c-3.444-6.357-9.459-10.938-16.503-12.567
		c-7.044-1.63-14.459-0.157-20.346,4.041c-12.318,8.785-15.192,25.954-6.407,38.271l0.548,0.768l31.048,27.799l22.525,0.617
		L127.986,33.274L127.986,33.274z M112.157,54.706l-24.895-22.29c-2.789-4.62-1.585-10.701,2.88-13.885
		c1.95-1.391,4.308-1.861,6.642-1.319c2.334,0.54,4.248,1.997,5.389,4.103l18.21,33.616L112.157,54.706z"/>
</g>
<path style="fill:#F3A069;" d="M224.829,255.971H31.142c-3.776,0-6.836-3.061-6.836-6.836V104.133c0-3.776,3.061-6.836,6.836-6.836
	H224.83c3.776,0,6.836,3.061,6.836,6.836v145.002C231.666,252.91,228.605,255.971,224.829,255.971z"/>
<path style="fill:#E27C50;" d="M127.986,255.971H31.142c-3.776,0-6.836-3.061-6.836-6.836V104.133c0-3.776,3.061-6.836,6.836-6.836
	h96.844V255.971z"/>
<path style="fill:#956958;" d="M234.731,105.741H21.24c-3.776,0-6.836-3.061-6.836-6.836V71.643c0-3.776,3.061-6.836,6.836-6.836
	h213.491c3.776,0,6.836,3.061,6.836,6.836v27.262C241.567,102.681,238.506,105.741,234.731,105.741z"/>
<path style="fill:#7C5849;" d="M126.986,64.807H21.24c-3.776,0-6.836,3.061-6.836,6.836v27.262c0,3.776,3.061,6.836,6.836,6.836
	h105.745L126.986,64.807L126.986,64.807z"/>
<polygon style="fill:#FCF0D9;" points="231.666,136.056 153.185,136.056 153.185,64.807 102.786,64.807 102.786,136.056 
	24.306,136.056 24.306,186.455 102.786,186.455 102.786,255.971 153.185,255.971 153.185,186.455 231.666,186.455 "/>
<polygon style="fill:#F8E0B3;" points="127.986,64.807 102.786,64.807 102.786,136.056 24.306,136.056 24.306,186.455 
	102.786,186.455 102.786,255.971 127.986,255.971 "/>
<g>
</g>
<g>
</g>
<g>
</g>
<g>
</g>
<g>
</g>
<g>
</g>
<g>
</g>
<g>
</g>
<g>
</g>
<g>
</g>
<g>
</g>
<g>
</g>
<g>
</g>
<g>
</g>
<g>
</g>
</svg>
